<svg xmlns="http://www.w3.org/2000/svg" width="36.315" height="36.315" viewBox="0 0 36.315 36.315">
  <g id="Icon_ionic-ios-chatbubbles" data-name="Icon ionic-ios-chatbubbles" transform="translate(-3.375 -3.375)">
    <path id="Path_5" data-name="Path 5" d="M35.649,27.172a2.115,2.115,0,0,1,.288-1.065,2.94,2.94,0,0,1,.183-.271,14.145,14.145,0,0,0,2.409-7.883C38.556,9.9,31.765,3.375,23.367,3.375A15.059,15.059,0,0,0,8.5,14.977a14.028,14.028,0,0,0-.323,2.986A14.808,14.808,0,0,0,23.1,32.724a17.978,17.978,0,0,0,4.12-.672c.986-.271,1.964-.629,2.217-.725a2.308,2.308,0,0,1,.812-.148,2.27,2.27,0,0,1,.882.175l4.95,1.755a1.18,1.18,0,0,0,.34.087.7.7,0,0,0,.7-.7,1.121,1.121,0,0,0-.044-.236Z" transform="translate(1.16 0)" fill="#fff"/>
    <path id="Path_6" data-name="Path 6" d="M26.988,31.147c-.314.087-.716.183-1.152.279a16.112,16.112,0,0,1-2.968.393A14.808,14.808,0,0,1,7.941,17.058a16.5,16.5,0,0,1,.131-1.868c.052-.375.113-.751.2-1.117.087-.393.192-.786.306-1.17l-.7.62a12.991,12.991,0,0,0-4.5,9.768A12.846,12.846,0,0,0,5.54,30.449c.2.306.314.541.279.7S4.78,36.559,4.78,36.559a.7.7,0,0,0,.236.672.711.711,0,0,0,.445.157.626.626,0,0,0,.253-.052l4.9-1.929a1.364,1.364,0,0,1,1.048.017,14.692,14.692,0,0,0,5.3,1.048,13.71,13.71,0,0,0,10.484-4.81s.279-.384.6-.838C27.722,30.938,27.355,31.051,26.988,31.147Z" transform="translate(0 2.301)" fill="#fff"/>
  </g>
</svg>
