<svg xmlns="http://www.w3.org/2000/svg" width="27" height="30.857" viewBox="0 0 27 30.857">
  <path id="Icon_awesome-calendar-alt" data-name="Icon awesome-calendar-alt" d="M0,27.964a2.894,2.894,0,0,0,2.893,2.893H24.107A2.894,2.894,0,0,0,27,27.964V11.571H0ZM19.286,16.152a.725.725,0,0,1,.723-.723H22.42a.725.725,0,0,1,.723.723v2.411a.725.725,0,0,1-.723.723H20.009a.725.725,0,0,1-.723-.723Zm0,7.714a.725.725,0,0,1,.723-.723H22.42a.725.725,0,0,1,.723.723v2.411A.725.725,0,0,1,22.42,27H20.009a.725.725,0,0,1-.723-.723Zm-7.714-7.714a.725.725,0,0,1,.723-.723h2.411a.725.725,0,0,1,.723.723v2.411a.725.725,0,0,1-.723.723H12.295a.725.725,0,0,1-.723-.723Zm0,7.714a.725.725,0,0,1,.723-.723h2.411a.725.725,0,0,1,.723.723v2.411a.725.725,0,0,1-.723.723H12.295a.725.725,0,0,1-.723-.723ZM3.857,16.152a.725.725,0,0,1,.723-.723H6.991a.725.725,0,0,1,.723.723v2.411a.725.725,0,0,1-.723.723H4.58a.725.725,0,0,1-.723-.723Zm0,7.714a.725.725,0,0,1,.723-.723H6.991a.725.725,0,0,1,.723.723v2.411A.725.725,0,0,1,6.991,27H4.58a.725.725,0,0,1-.723-.723ZM24.107,3.857H21.214V.964A.967.967,0,0,0,20.25,0H18.321a.967.967,0,0,0-.964.964V3.857H9.643V.964A.967.967,0,0,0,8.679,0H6.75a.967.967,0,0,0-.964.964V3.857H2.893A2.894,2.894,0,0,0,0,6.75V9.643H27V6.75A2.894,2.894,0,0,0,24.107,3.857Z" opacity="0.3"/>
</svg>
